<svg xmlns="http://www.w3.org/2000/svg" width="9.525" height="12.037" viewBox="0 0 9.525 12.037">
  <path id="bell" d="M62.762,9.579a1.87,1.87,0,0,1-.568-.774A8.955,8.955,0,0,1,61.6,5.267s0-.009,0-.014a3.415,3.415,0,0,0-2.01-3.1V1.341A1.341,1.341,0,0,0,58.252,0h-.111A1.341,1.341,0,0,0,56.8,1.341v.815a3.415,3.415,0,0,0-2.011,3.111A8.955,8.955,0,0,1,54.2,8.805a1.87,1.87,0,0,1-.568.774.343.343,0,0,0-.188.39.359.359,0,0,0,.354.276h2.585a1.816,1.816,0,0,0,3.631,0H62.6a.359.359,0,0,0,.354-.276A.343.343,0,0,0,62.762,9.579ZM57.508,1.341a.635.635,0,0,1,.633-.634h.111a.635.635,0,0,1,.633.634v.586a3.416,3.416,0,0,0-1.378,0V1.341Zm.689,9.99a1.113,1.113,0,0,1-1.11-1.086h2.22A1.113,1.113,0,0,1,58.2,11.331Zm1.42-1.792H54.6a3.7,3.7,0,0,0,.185-.324A8.929,8.929,0,0,0,55.5,5.267a2.7,2.7,0,1,1,5.4,0s0,.009,0,.013a8.911,8.911,0,0,0,.712,3.933,3.7,3.7,0,0,0,.185.324Z" transform="translate(-53.434)" fill="#242424"/>
</svg>
