<svg xmlns="http://www.w3.org/2000/svg" width="47" height="47" viewBox="0 0 47 47">
  <g id="camera_icon" data-name="camera icon" transform="translate(-454 -347)">
    <circle id="Ellipse_470" data-name="Ellipse 470" cx="23.5" cy="23.5" r="23.5" transform="translate(454 347)" fill="#ecebeb"/>
    <g id="camera" transform="translate(464.702 357.275)">
      <path id="Path_6099" data-name="Path 6099" d="M21.724,6.146H18.347l-.393-1.18A2.867,2.867,0,0,0,15.228,3H10.369A2.868,2.868,0,0,0,7.644,4.966L7.25,6.146H3.873A2.876,2.876,0,0,0,1,9.019V20.581A2.876,2.876,0,0,0,3.873,23.45H21.727A2.876,2.876,0,0,0,24.6,20.578V9.016A2.876,2.876,0,0,0,21.724,6.146Zm1.3,14.432a1.3,1.3,0,0,1-1.3,1.3H3.873a1.3,1.3,0,0,1-1.3-1.3V9.016a1.3,1.3,0,0,1,1.3-1.3H7.817a.787.787,0,0,0,.746-.538l.573-1.72a1.3,1.3,0,0,1,1.233-.888h4.859a1.3,1.3,0,0,1,1.233.889l.573,1.719a.787.787,0,0,0,.746.538h3.945a1.3,1.3,0,0,1,1.3,1.3Z" fill="#242424"/>
      <path id="Path_6100" data-name="Path 6100" d="M14.4,10a5.9,5.9,0,1,0,5.9,5.9A5.9,5.9,0,0,0,14.4,10Zm0,10.225A4.326,4.326,0,1,1,18.725,15.9,4.326,4.326,0,0,1,14.4,20.225Z" transform="translate(-1.601 -1.494)" fill="#242424"/>
    </g>
  </g>
</svg>
