<svg xmlns="http://www.w3.org/2000/svg" width="27.388" height="21.163" viewBox="0 0 27.388 21.163">
  <g id="checklist_icon" data-name="checklist icon" transform="translate(0 -57.722)">
    <path id="Path_6085" data-name="Path 6085" d="M8.722,57.722H1.253A1.245,1.245,0,0,0,.008,58.967v7.469a1.245,1.245,0,0,0,1.245,1.245H8.722a1.245,1.245,0,0,0,1.245-1.245V58.967A1.245,1.245,0,0,0,8.722,57.722ZM7.477,65.191H2.5v-4.98h4.98Z" transform="translate(-0.008 0)" fill="#b5bad0"/>
    <path id="Path_6086" data-name="Path 6086" d="M244.574,126.983H232.125a1.245,1.245,0,0,0,0,2.49h12.449a1.245,1.245,0,0,0,0-2.49Z" transform="translate(-218.431 -65.526)" fill="#b5bad0"/>
    <path id="Path_6087" data-name="Path 6087" d="M244.574,357.855H232.125a1.245,1.245,0,0,0,0,2.49h12.449a1.245,1.245,0,0,0,0-2.49Z" transform="translate(-218.431 -283.949)" fill="#b5bad0"/>
    <path id="Path_6088" data-name="Path 6088" d="M7.843,311.015,3.7,315.109,2.14,313.491a1.245,1.245,0,0,0-1.79,1.732l2.433,2.528a1.245,1.245,0,0,0,.88.373h.015a1.245,1.245,0,0,0,.871-.36l5.037-4.98a1.245,1.245,0,1,0-1.743-1.77Z" transform="translate(0 -239.239)" fill="#b5bad0"/>
  </g>
</svg>
