<svg id="pic" xmlns="http://www.w3.org/2000/svg" xmlns:xlink="http://www.w3.org/1999/xlink" width="297.013" height="383.643" viewBox="0 0 297.013 383.643">
  <defs>
    <clipPath id="clip-path">
      <rect id="Rectangle_127" data-name="Rectangle 127" width="297.013" height="383.643" fill="none"/>
    </clipPath>
  </defs>
  <g id="Group_1759" data-name="Group 1759" clip-path="url(#clip-path)">
    <path id="Path_6158" data-name="Path 6158" d="M177.8,66.148H153.044a31,31,0,0,1-24.751-12.376h-6.188A24.745,24.745,0,0,0,97.354,78.524V90.9H91.166a18.1,18.1,0,0,0-13.3,5.693l-.061-.062L73.036,68.808A31.982,31.982,0,0,1,85.288,38.056l3.837-2.847L88.2,33.786A18.9,18.9,0,0,1,90.547,9.84a18.739,18.739,0,0,1,13.428-5.569h51.05A66.072,66.072,0,0,1,221.11,70.356a67.046,67.046,0,0,1-1.979,16.088l-2.662,10.7-.061.062A18.13,18.13,0,0,0,202.547,90.9h-6.188V78.524a12.412,12.412,0,0,0-12.375-12.376Z" transform="translate(32.59 1.917)" fill="#ffa754"/>
    <path id="Path_6159" data-name="Path 6159" d="M209.389,130.536l-.062.123-5.383,40.779L173,152.873l-30.939,18.564-5.445-40.9a100.856,100.856,0,0,0-70.727,60.206L59.52,206.46l-7.363-72.15h-9.1l-6.188-6.188L24.5,134.31H14.35l2.785,86.011A39,39,0,0,0,76.6,252.25a39.619,39.619,0,0,0,14.355-15.717l7.8-15.593v99H284.385V227.993a100.849,100.849,0,0,0-75-97.457" transform="translate(6.441 57.511)" fill="#5e369f"/>
    <rect id="Rectangle_125" data-name="Rectangle 125" width="37.127" height="24.751" transform="translate(216.572 290.827)" fill="#ffa754"/>
    <rect id="Rectangle_126" data-name="Rectangle 126" width="37.127" height="24.751" transform="translate(105.193 290.827)" fill="#ffa754"/>
    <path id="Path_6160" data-name="Path 6160" d="M160.236,130.475v.062l-.062.123-5.383,40.777-30.939-18.563L148.6,128.123A101.858,101.858,0,0,1,160.236,130.475Z" transform="translate(55.594 57.511)" fill="#2c0056"/>
    <path id="Path_6161" data-name="Path 6161" d="M135.124,152.874l-30.939,18.563-5.445-40.9c.99-.248,1.981-.5,2.97-.681l8.663-1.733Z" transform="translate(44.322 57.511)" fill="#2c0056"/>
    <path id="Path_6162" data-name="Path 6162" d="M16.646,115.311H59.96a6.206,6.206,0,0,1,6.188,6.188v12.375a6.206,6.206,0,0,1-6.188,6.188H47.586L41.4,133.874l-12.375,6.188H10.458a6.206,6.206,0,0,1-6.188-6.188V121.5a6.206,6.206,0,0,1,6.188-6.188Z" transform="translate(1.917 51.76)" fill="#2c0056"/>
    <path id="Path_6163" data-name="Path 6163" d="M49.939,97.354A12.413,12.413,0,0,1,62.316,109.73v7.239a12.414,12.414,0,0,1-3.651,8.787l-8.725,8.725H12.812V91.166a18.564,18.564,0,0,1,37.127,0Z" transform="translate(5.751 32.59)" fill="#ffec02"/>
    <path id="Path_6164" data-name="Path 6164" d="M164.206,64.061a18.125,18.125,0,0,1,13.86,6.311,18.525,18.525,0,0,1-13.86,30.816h-6.188V64.061Z" transform="translate(70.93 28.755)" fill="#ffec02"/>
    <path id="Path_6165" data-name="Path 6165" d="M151.445,114.8l4.826,19.306L131.52,158.855,106.769,134.1,111.6,114.8a37.611,37.611,0,0,0,7.55.743H143.9A37.607,37.607,0,0,0,151.445,114.8Z" transform="translate(47.926 51.53)" fill="#ffec02"/>
    <path id="Path_6166" data-name="Path 6166" d="M188.69,75.563v37.127a37.221,37.221,0,0,1-29.577,36.384,37.717,37.717,0,0,1-7.55.743H126.812a37.713,37.713,0,0,1-7.549-.743,37.221,37.221,0,0,1-29.577-36.384v-49.5a24.745,24.745,0,0,1,24.751-24.753h6.188a31,31,0,0,0,24.751,12.378h30.938A12.412,12.412,0,0,1,188.69,63.189Z" transform="translate(40.258 17.253)" fill="#ffec02"/>
    <path id="Path_6167" data-name="Path 6167" d="M97.354,64.061v37.127H91.166A18.59,18.59,0,0,1,72.6,82.625,18.692,18.692,0,0,1,91.166,64.061Z" transform="translate(32.59 28.755)" fill="#ffec02"/>
    <path id="Path_6168" data-name="Path 6168" d="M106.769,81.144h49.5a24.751,24.751,0,1,1-49.5,0" transform="translate(47.926 36.423)" fill="#ff826e"/>
    <path id="Path_6169" data-name="Path 6169" d="M209.216,180.183l-2.414-9.655a43.374,43.374,0,0,0,27.846-34.4h.488a24.716,24.716,0,0,0,20.617-38.4l1.973-7.9A72.267,72.267,0,0,0,187.583,0H136.565a25.2,25.2,0,0,0-22.988,35.484A38.121,38.121,0,0,0,99,65.363a37.284,37.284,0,0,0,.551,6.414l4.3,25.023A24.511,24.511,0,0,0,99,111.38a24.774,24.774,0,0,0,24.751,24.75h.5a43.385,43.385,0,0,0,27.844,34.4l-2.45,9.8-4.838.965a106.765,106.765,0,0,0-75.152,57.911L65.4,197.435a12.35,12.35,0,0,0,8.854-11.8V173.257A12.349,12.349,0,0,0,68.61,162.9l.2-.2a18.428,18.428,0,0,0,5.439-13.127v-7.252a18.538,18.538,0,0,0-12.375-17.424v-1.139a24.751,24.751,0,0,0-49.5,0v37.127A12.387,12.387,0,0,0,0,173.257v12.375a12.389,12.389,0,0,0,12.376,12.376h2.444l2.549,80.014A45.142,45.142,0,0,0,99,303.163v80.479h198.01V285.522c0-51.544-37.462-96.108-87.8-105.339m-2.959,12.14c.891.154,1.782.326,2.662.506l-3.441,25.964-16.064-9.634Zm28.879-68.568V99.005a12.375,12.375,0,0,1,0,24.75M111.381,111.38a12.387,12.387,0,0,1,12.375-12.375v24.75a12.387,12.387,0,0,1-12.375-12.375m12.375-30.939v6.187a24.644,24.644,0,0,0-8.8,1.689l-3.2-18.654a25.283,25.283,0,0,1-.365-4.3,25.68,25.68,0,0,1,10.2-20.422l8.509-6.379-4.19-6.266a12.817,12.817,0,0,1,10.662-19.919h51.018a59.94,59.94,0,0,1,58.14,74.471l-.494,1.985a24.5,24.5,0,0,0-10.093-2.2V80.441a18.585,18.585,0,0,0-18.563-18.563h-6.188a24.777,24.777,0,0,1-24.751-24.753H173.258A36.939,36.939,0,0,0,182.5,61.562a24.7,24.7,0,0,1-21.62-24.437H148.507a37,37,0,0,0,2.21,12.63A30.989,30.989,0,0,0,123.756,80.441Zm12.376,49.5v-49.5a18.585,18.585,0,0,1,18.563-18.563h3.286a37.053,37.053,0,0,0,27.653,12.375h30.939a6.19,6.19,0,0,1,6.187,6.188v49.5a30.974,30.974,0,0,1-30.938,30.939H167.071a30.975,30.975,0,0,1-30.939-30.939m30.939,43.314h24.751c.965,0,1.918-.081,2.87-.141l2.654,10.623-17.9,17.9-17.9-17.9L164.2,173.11c.953.067,1.905.148,2.872.148m2.4,35.9-16.064,9.634-3.422-25.9,2.679-.532Zm-144.721-85.4a12.376,12.376,0,0,1,24.751,0v1.139a18.538,18.538,0,0,0-12.375,17.424v6.19H49.5v-6.19a6.188,6.188,0,0,1,12.376,0v7.252a6.212,6.212,0,0,1-1.814,4.377l-6.936,6.936H24.751Zm-12.375,49.5h49.5l.012,12.375H52.064l-7.53-7.53-15.061,7.53h-17.1Zm99,123.756h24.751v12.376H111.381Zm136.13,12.375H222.76V297.011h24.751Zm37.127,61.878H259.887V259.885H247.511v24.751H210.385v37.127h37.126v49.5H111.381v-49.5h37.126V284.637H111.381V259.885H99v17.1l-7.128,14.269A32.818,32.818,0,0,1,29.727,277.62L27.2,198.008h5.2l9.7-4.845,4.851,4.845h6.071l8.9,87.26,12.314-1.256-1.949-19.121L78.09,250.6A94.409,94.409,0,0,1,137.9,195.848l5.711,43.259L179.446,217.6l35.839,21.509,5.687-43.005c37.294,13.044,63.666,48.755,63.666,89.42Z" transform="translate(0 0)"/>
    <path id="Path_6170" data-name="Path 6170" d="M108.686,59.791a6.188,6.188,0,1,1-6.188,6.188,6.188,6.188,0,0,1,6.188-6.188" transform="translate(46.009 26.839)"/>
    <path id="Path_6171" data-name="Path 6171" d="M142.852,59.791a6.188,6.188,0,1,1-6.188,6.188,6.188,6.188,0,0,1,6.188-6.188" transform="translate(61.345 26.839)"/>
    <path id="Path_6172" data-name="Path 6172" d="M164.376,83.061V76.873H102.5v6.188a30.939,30.939,0,1,0,61.878,0m-48.445,6.188h35.011a18.568,18.568,0,0,1-35.011,0Z" transform="translate(46.009 34.506)"/>
    <path id="Path_6173" data-name="Path 6173" d="M125.769,162.289a6.188,6.188,0,1,1-6.188,6.188,6.188,6.188,0,0,1,6.188-6.188" transform="translate(53.677 72.847)"/>
    <path id="Path_6174" data-name="Path 6174" d="M125.769,179.372a6.188,6.188,0,1,1-6.188,6.188,6.188,6.188,0,0,1,6.188-6.188" transform="translate(53.677 80.515)"/>
    <path id="Path_6175" data-name="Path 6175" d="M125.769,196.455a6.188,6.188,0,1,1-6.188,6.188,6.188,6.188,0,0,1,6.188-6.188" transform="translate(53.677 88.183)"/>
  </g>
</svg>
