<svg xmlns="http://www.w3.org/2000/svg" xmlns:xlink="http://www.w3.org/1999/xlink" width="25.09" height="25.092" viewBox="0 0 25.09 25.092">
  <defs>
    <clipPath id="clip-path">
      <rect id="Rectangle_107" data-name="Rectangle 107" width="25.09" height="25.092" fill="#b5bad0"/>
    </clipPath>
  </defs>
  <g id="open_lessons_icon" data-name="open lessons icon" transform="translate(0 0)">
    <g id="Group_1731" data-name="Group 1731" transform="translate(0 0)" clip-path="url(#clip-path)">
      <path id="Path_6136" data-name="Path 6136" d="M24.231,14.191a2.942,2.942,0,0,0-4.157,0l-5.381,5.369a.973.973,0,0,0-.246.409l-1.172,3.858a.979.979,0,0,0,1.2,1.229l3.956-1.1a.986.986,0,0,0,.431-.251l5.369-5.36a2.943,2.943,0,0,0,0-4.158M17.658,22.14l-1.99.551.583-1.918,3.631-3.623,1.386,1.386Zm5.187-5.177-.19.189-1.386-1.386.189-.189a.98.98,0,0,1,1.387,1.386M11.223,24.111a.981.981,0,0,1-.98.98H3.921A3.925,3.925,0,0,1,0,21.171V3.921A3.925,3.925,0,0,1,3.921,0h12.05a3.925,3.925,0,0,1,3.921,3.921v7.547a.98.98,0,1,1-1.96,0V3.921A1.963,1.963,0,0,0,15.971,1.96H3.921a1.962,1.962,0,0,0-1.96,1.961v17.25a1.962,1.962,0,0,0,1.96,1.96h6.322a.98.98,0,0,1,.98.98m4.753-17.4a.98.98,0,0,1-.98.98H12.105a.98.98,0,0,1,0-1.961H15a.98.98,0,0,1,.98.98M10.067,4.69,7.78,7.458a1.713,1.713,0,0,1-1.212.628c-.038,0-.076,0-.113,0a1.714,1.714,0,0,1-1.178-.471L5.25,7.593,4.2,6.513A.98.98,0,0,1,5.6,5.146L6.439,6,8.556,3.441A.98.98,0,0,1,10.067,4.69M15,13.719H12.105a.98.98,0,1,1,0-1.96H15a.98.98,0,0,1,0,1.96m-4.929-3.008L7.78,13.48a1.713,1.713,0,0,1-1.212.627c-.038,0-.076,0-.113,0a1.712,1.712,0,0,1-1.179-.471l-.024-.024L4.2,12.543a.98.98,0,1,1,1.4-1.372l.837.855L8.556,9.463a.98.98,0,0,1,1.511,1.248" transform="translate(0 0)" fill="#b5bad0"/>
      <path id="Path_6137" data-name="Path 6137" d="M10.477,29.194l1.566-1.566a.553.553,0,0,0-.78-.78L9.691,28.419,8.12,26.848a.553.553,0,0,0-.78.78l1.576,1.566L7.351,30.759a.551.551,0,1,0,.78.78l1.56-1.56,1.56,1.56a.552.552,0,1,0,.78-.78Z" transform="translate(-2.947 -10.948)" fill="#b5bad0"/>
      <path id="Path_6138" data-name="Path 6138" d="M10.477,29.194l1.566-1.566a.553.553,0,0,0-.78-.78L9.691,28.419,8.12,26.848a.553.553,0,0,0-.78.78l1.576,1.566L7.351,30.759a.551.551,0,1,0,.78.78l1.56-1.56,1.56,1.56a.552.552,0,1,0,.78-.78Z" transform="translate(-2.947 -10.948)" fill="#b5bad0" stroke="#b5bad0" stroke-miterlimit="10" stroke-width="1"/>
    </g>
  </g>
</svg>
