<svg id="schedule_icon" data-name="schedule icon" xmlns="http://www.w3.org/2000/svg" width="24.699" height="25.092" viewBox="0 0 24.699 25.092">
  <path id="Path_6083" data-name="Path 6083" d="M40.506,56.809,40.121,59.1a.834.834,0,0,0,1.208.879L43.385,58.9l2.056,1.073A.834.834,0,0,0,46.65,59.1l-.385-2.287,1.655-1.624a.834.834,0,0,0-.462-1.421l-2.294-.34-1.033-2.076a.834.834,0,0,0-1.494,0l-1.032,2.076-2.294.34a.834.834,0,0,0-.462,1.421Z" transform="translate(-31.036 -40.655)" fill="#b5bad0"/>
  <path id="Path_6084" data-name="Path 6084" d="M23.184,2.667H20.558V1.211A1.211,1.211,0,0,0,19.347,0h-.192a1.21,1.21,0,0,0-1.21,1.211V2.667H8.678V1.211A1.211,1.211,0,0,0,7.467,0H7.275a1.21,1.21,0,0,0-1.21,1.211V2.667h-2.6A2.494,2.494,0,0,0,.977,5.159V22.6a2.5,2.5,0,0,0,2.492,2.492H23.184A2.5,2.5,0,0,0,25.676,22.6V5.159A2.5,2.5,0,0,0,23.184,2.667Zm-.325,19.607H3.794V8.7H22.859Z" transform="translate(-0.977)" fill="#b5bad0"/>
</svg>
